<svg width="18" height="18" viewBox="0 0 18 18" fill="none" xmlns="http://www.w3.org/2000/svg">
<g clip-path="url(#clip0_9_30094)">
<g filter="url(#filter0_b_9_30094)">
<circle cx="9" cy="9" r="9" fill="black" fill-opacity="0.3"/>
</g>
<path d="M7 5.92889C7 5.50345 7 5.29072 7.08558 5.17346C7.16013 5.0713 7.27408 5.00809 7.39743 5.00045C7.53902 4.99169 7.70977 5.10969 8.05127 5.34569L12.4953 8.41679C12.7775 8.61179 12.9186 8.70929 12.9678 8.83218C13.0107 8.93963 13.0107 9.06037 12.9678 9.16782C12.9186 9.29071 12.7775 9.38821 12.4953 9.58321L8.05127 12.6543C7.70977 12.8903 7.53902 13.0083 7.39743 12.9995C7.27408 12.9919 7.16013 12.9287 7.08558 12.8265C7 12.7093 7 12.4966 7 12.0711V5.92889Z" fill="#D9D9D9"/>
</g>
<defs>
<filter id="filter0_b_9_30094" x="-10" y="-10" width="38" height="38" filterUnits="userSpaceOnUse" color-interpolation-filters="sRGB">
<feFlood flood-opacity="0" result="BackgroundImageFix"/>
<feGaussianBlur in="BackgroundImageFix" stdDeviation="5"/>
<feComposite in2="SourceAlpha" operator="in" result="effect1_backgroundBlur_9_30094"/>
<feBlend mode="normal" in="SourceGraphic" in2="effect1_backgroundBlur_9_30094" result="shape"/>
</filter>
<clipPath id="clip0_9_30094">
<rect width="18" height="18" fill="white"/>
</clipPath>
</defs>
</svg>
