<svg width="38" height="30" viewBox="0 0 38 30" fill="none" xmlns="http://www.w3.org/2000/svg">
<g clip-path="url(#clip0_8_29914)">
<path d="M37.9998 21.6247C37.947 26.1921 34.192 29.9286 29.5778 29.9989C26.1213 30.0511 23.1271 28.0756 21.7274 25.1935C21.5144 24.7555 21.3397 24.2977 21.205 23.8219C18.0105 13.6272 29.8545 3.20362 33.4912 0.296264C34.0573 -0.156152 34.8855 -0.0822511 35.3624 0.462089C35.7919 0.950554 35.8065 1.67153 35.3988 2.17802C31.4053 7.13657 30.0292 10.6225 30.0511 13.0756C34.5251 13.3857 38.0508 17.1023 37.9998 21.6247Z" fill="#FF184E"/>
<path d="M17.3352 21.6247C17.2843 26.1921 13.5274 29.9286 8.91507 29.9989C5.45854 30.0511 2.46251 28.0756 1.06279 25.1935C0.851649 24.7555 0.675092 24.2977 0.540398 23.8219C-2.65221 13.6272 9.18991 3.20362 12.8266 0.296264C13.3945 -0.156152 14.2209 -0.0822511 14.6996 0.462089C15.1274 0.950554 15.1419 1.67153 14.736 2.17802C10.7425 7.13657 9.36647 10.6225 9.38832 13.0756C13.8623 13.3857 17.3862 17.1023 17.3352 21.6247Z" fill="#FF184E"/>
</g>
<defs>
<clipPath id="clip0_8_29914">
<rect width="38" height="30" fill="white"/>
</clipPath>
</defs>
</svg>
