<svg width="16" height="16" viewBox="0 0 16 16" fill="none" xmlns="http://www.w3.org/2000/svg">
<path fill-rule="evenodd" clip-rule="evenodd" d="M14.4 7.99998C14.4 11.5346 11.5346 14.4 7.99998 14.4C4.46535 14.4 1.59998 11.5346 1.59998 7.99998C1.59998 4.46535 4.46535 1.59998 7.99998 1.59998C11.5346 1.59998 14.4 4.46535 14.4 7.99998ZM9.99998 5.99998C9.99998 7.10455 9.10455 7.99998 7.99998 7.99998C6.89541 7.99998 5.99998 7.10455 5.99998 5.99998C5.99998 4.89541 6.89541 3.99998 7.99998 3.99998C9.10455 3.99998 9.99998 4.89541 9.99998 5.99998ZM7.99997 9.59998C6.43304 9.59998 5.04147 10.3508 4.1654 11.5123C5.11604 12.5496 6.48206 13.2 7.99998 13.2C9.51789 13.2 10.8839 12.5496 11.8345 11.5123C10.9585 10.3508 9.56691 9.59998 7.99997 9.59998Z" fill="#777E91"/>
</svg>
