<svg width="25" height="24" viewBox="0 0 25 24" fill="none" xmlns="http://www.w3.org/2000/svg">
<path d="M2.75 15C2.75 17.4853 4.76472 19.5 7.25 19.5H18.5C20.5711 19.5 22.25 17.8211 22.25 15.75C22.25 14.1479 21.2453 12.7805 19.8316 12.2433C19.9407 11.9324 20 11.5981 20 11.25C20 9.59315 18.6569 8.25 17 8.25C16.6767 8.25 16.3654 8.30113 16.0737 8.39575C15.4765 6.1526 13.4312 4.5 11 4.5C8.1005 4.5 5.75 6.85051 5.75 9.75C5.75 10.0832 5.78105 10.4092 5.8404 10.7252C4.04555 11.3167 2.75 13.0071 2.75 15Z" stroke="#141416" stroke-width="1.5" stroke-linecap="round" stroke-linejoin="round"/>
</svg>
