<?xml version="1.0" encoding="utf-8"?>
<!-- Generator: Adobe Illustrator 26.0.1, SVG Export Plug-In . SVG Version: 6.00 Build 0)  -->
<svg version="1.1" id="woocommerce" xmlns="http://www.w3.org/2000/svg" xmlns:xlink="http://www.w3.org/1999/xlink" x="0px"
	 y="0px" viewBox="0 0 36 27" style="enable-background:new 0 0 36 27;" xml:space="preserve">
<style type="text/css">
	.st0{fill:#9B5C8F;}
	.st1{fill:#FFFFFF;}
</style>
<g>
	<path class="st0" d="M3.3,2.8h29.3c1.9,0,3.4,1.5,3.4,3.4v11.2c0,1.9-1.5,3.4-3.4,3.4H22.1l1.4,3.5l-6.3-3.5H3.4
		c-1.9,0-3.4-1.5-3.4-3.4V6.1C0,4.3,1.5,2.8,3.3,2.8z"/>
	<path class="st1" d="M2.1,5.8C2.3,5.6,2.6,5.4,3,5.4c0.7-0.1,1.2,0.3,1.3,1.1c0.5,3.1,1,5.6,1.5,7.8l3.2-6.1
		C9.2,7.6,9.6,7.3,10,7.2c0.6,0,1,0.4,1.2,1.2c0.4,1.9,0.8,3.6,1.4,5c0.4-3.7,1-6.4,1.9-8c0.2-0.4,0.5-0.6,1-0.6
		c0.3,0,0.6,0.1,0.9,0.3c0.3,0.2,0.4,0.5,0.5,0.8c0,0.3,0,0.5-0.1,0.7c-0.6,1.1-1,2.8-1.4,5.3c-0.4,2.4-0.5,4.2-0.4,5.6
		c0,0.4,0,0.7-0.2,1c-0.2,0.3-0.4,0.5-0.8,0.5c-0.4,0-0.8-0.1-1.2-0.5c-1.4-1.4-2.4-3.5-3.2-6.2c-1,1.9-1.7,3.3-2.1,4.2
		c-0.9,1.7-1.6,2.5-2.2,2.5c-0.4,0-0.7-0.3-1-1C3.5,16,2.7,12.3,1.8,6.8C1.8,6.4,1.8,6.1,2.1,5.8z M33.5,8.1
		c-0.5-0.9-1.3-1.5-2.3-1.7c-0.3-0.1-0.5-0.1-0.8-0.1c-1.4,0-2.5,0.7-3.4,2.2c-0.8,1.2-1.1,2.6-1.1,4.1c0,1.1,0.2,2.1,0.7,2.9
		c0.5,0.9,1.3,1.5,2.3,1.7c0.3,0.1,0.5,0.1,0.8,0.1c1.4,0,2.6-0.7,3.4-2.2c0.8-1.3,1.1-2.6,1.1-4.1C34.2,9.9,34,8.9,33.5,8.1z
		 M31.7,12.2c-0.2,1-0.6,1.7-1.1,2.2c-0.4,0.4-0.8,0.5-1.2,0.5c-0.4-0.1-0.6-0.4-0.9-1c-0.2-0.5-0.3-0.9-0.3-1.3
		c0-0.4,0-0.7,0.1-1.1c0.1-0.6,0.4-1.2,0.8-1.7c0.5-0.7,1-1,1.5-0.9c0.4,0.1,0.6,0.4,0.9,1c0.2,0.5,0.3,0.9,0.3,1.3
		C31.8,11.5,31.7,11.9,31.7,12.2L31.7,12.2z M24.3,8.1C23.8,7.2,23,6.7,22,6.4c-0.3-0.1-0.5-0.1-0.8-0.1c-1.4,0-2.5,0.7-3.4,2.2
		c-0.8,1.2-1.1,2.6-1.1,4.1c0,1.1,0.2,2.1,0.7,2.9c0.5,0.9,1.3,1.5,2.3,1.7c0.3,0.1,0.5,0.1,0.8,0.1c1.4,0,2.6-0.7,3.4-2.2
		c0.8-1.3,1.1-2.6,1.1-4.1C25,9.9,24.8,8.9,24.3,8.1z M22.5,12.2c-0.2,1-0.6,1.7-1.1,2.2c-0.4,0.4-0.8,0.5-1.2,0.5
		c-0.4-0.1-0.6-0.4-0.9-1c-0.2-0.5-0.3-0.9-0.3-1.3c0-0.4,0-0.7,0.1-1.1c0.1-0.6,0.4-1.2,0.8-1.7c0.5-0.7,1-1,1.5-0.9
		c0.4,0.1,0.6,0.4,0.9,1c0.2,0.5,0.3,0.9,0.3,1.3C22.6,11.5,22.6,11.9,22.5,12.2L22.5,12.2z"/>
</g>
</svg>
